<svg viewBox="0 0 400 300" xmlns="http://www.w3.org/2000/svg"><ellipse cx="199.51" cy="253.53" fill="#e6e6e6" opacity=".45" rx="134.06" ry="9.85"/><path d="m206.35 43.21-1.28 28c-3.73 7-4.81 8.16-6.14 8.41v8.38c3.29.8 6.21 1 7.93 0 6-3.6 10.14-21.89 10.14-21.89z" fill="#68e1fd"/><path d="m91.72 74.04h220.73v160.39h-220.73z" fill="#f2f2f2" transform="matrix(.99999701 -.00244346 .00244346 .99999701 -.38 .5)"/><path d="m91.51 74.04h220.81v31.58h-220.81z" fill="#e6e6e6"/><circle cx="111.32" cy="90.33" fill="#24285b" r="4"/><circle cx="123.22" cy="90.3" fill="#68e1fd" r="4"/><circle cx="134.43" cy="90.27" fill="#ffd200" r="4"/><g fill="#e6e6e6"><path d="m192.42 181.71h94.63v5.89h-94.63z"/><path d="m192.42 197.31h94.63v5.89h-94.63z"/><path d="m192.42 212.91h65.75v5.89h-65.75z"/><path d="m192.42 116.79h92.18v55.2h-92.18z"/></g><path d="m111.48 116.29h70.33v19.84h-70.33z" fill="#666" opacity=".17"/><path d="m111.48 144.39h70.33v19.84h-70.33z" fill="#e6e6e6"/><circle cx="123.73" cy="154.4" fill="#666" opacity=".17" r="7.14"/><path d="m136.25 149.96h28.37v3.14h-28.37z" fill="#666" opacity=".17"/><path d="m136.25 156.24h17.78v3.14h-17.78z" fill="#666" opacity=".17"/><path d="m111.48 172.5h70.33v19.84h-70.33z" fill="#e6e6e6"/><circle cx="123.73" cy="182.51" fill="#666" opacity=".17" r="7.14"/><path d="m136.25 178.06h28.37v3.14h-28.37z" fill="#666" opacity=".17"/><path d="m136.25 184.35h17.78v3.14h-17.78z" fill="#666" opacity=".17"/><path d="m111.48 200.6h70.33v19.84h-70.33z" fill="#e6e6e6"/><circle cx="123.73" cy="210.61" fill="#666" opacity=".17" r="7.14"/><path d="m136.25 206.17h28.37v3.14h-28.37z" fill="#666" opacity=".17"/><path d="m136.25 212.45h17.78v3.14h-17.78z" fill="#666" opacity=".17"/><path d="m115.32 234.64c.34 0-7.8-44.21-5.09-50.29s9.15-12 9-16.89 18.87-19.33 23-31.33l3.7 5.85 38.55-32.56s6.57-.94 8.71-5.71 22.17-29.71 22.17-29.71h-10.72l-12.1 15.8-8.2-3.47-43.79 33-2.51 9.7s-31.32 22.47-41.66 34.34 3.45 71.26 3.45 71.26z" opacity=".08"/><path d="m133.79 96.59h61.29v18.06h-61.29z" fill="#24285b" transform="matrix(.77006805 -.63796175 .63796175 .77006805 -29.57 129.18)"/><circle cx="149.48" cy="118.12" fill="#ffd200" r="6.5"/><path d="m153.62 99.16h25.82v2.86h-25.82z" fill="#fff" opacity=".17" transform="matrix(.77006805 -.63796175 .63796175 .77006805 -25.88 129.36)"/><path d="m158.38 106.64h16.18v2.86h-16.18z" fill="#fff" opacity=".17" transform="matrix(.77006805 -.63796175 .63796175 .77006805 -30.67 131.04)"/><path d="m80.05 199.15-6.53 20.85a21.46 21.46 0 0 1 -11.25 13l-9.6 4.56.39 2.84 14.34-3.1a25.25 25.25 0 0 0 15.6-13.22l10.13-20.86z" fill="#f4a28c"/><path d="m101.69 205.03 3.06 44.72-2.85.99-11.35-41.83z" fill="#f4a28c"/><path d="m105.34 250.52s.66 2.65 2.66 3.48 1 3.71-2 1.95a19.17 19.17 0 0 1 -2.65-1.85 5.64 5.64 0 0 0 -2.69-1.15 1 1 0 0 1 -.73-.78c-.4-1.46 2.92-2.84 2.92-2.84z" fill="#68e1fd"/><path d="m53.06 240.37s-2 1.54-2 3.56-2.8 2.27-2.45-1a19 19 0 0 1 .56-3 5.2 5.2 0 0 0 -.05-2.74.87.87 0 0 1 .39-.92c1.09-.9 3.55 1.4 3.55 1.4z" fill="#68e1fd"/><path d="m84.57 140.22 1.07 4.3-3.49 1.84-.61-7.36z" fill="#f4a28c"/><path d="m80.72 134.86a2.62 2.62 0 0 1 4.38-.38c1.29 1.62 2.8 4.15.77 5.3-3.11 1.76-5.51-2.18-5.51-2.18a4.73 4.73 0 0 1 .36-2.74z" fill="#f4a28c"/><path d="m66.4 153.71s-15 23.47-12 26.93c9.54 11 30.72-13.74 30.72-13.74z" fill="#f4a28c"/><path d="m100.36 150.2a25.91 25.91 0 0 0 -29.8-.53c-3.93 2.67-7 6.67-5.57 12.45 3.25 13.57 13.65 22.51 14 34.45l24.61-1.65v-15.37a10.5 10.5 0 0 1 3.36-7.74c2.14-2 4.28-5.21 2.82-9.63-1.33-3.94-4.69-8.51-9.42-11.98z" fill="#68e1fd"/><path d="m82.67 137.6s-.7-.69-1.12.18.89 1.41 1.32 1-.2-1.18-.2-1.18z" fill="#f4a28c"/><path d="m88.18 156.6s-5.32 10.16.85 20.07-5.52 19.59-5.52 19.59l20.06-1.34v-8.76z" opacity=".08"/><path d="m77.93 150.51c.47-1.84 2.66-5.18-.42-11.2a7.39 7.39 0 0 1 .06-6.33c2.93-4.94 7.65-3.25 7.09-.48s-1 4.09-1 4.09 8.94 6.41 7.63 11.13c-1.11 4.2-15.35 10.45-13.36 2.79z" fill="#24285b"/><path d="m77.88 190.29h25.69l4.09 35.55-38.11-1.72z" fill="#24285b"/><path d="m86.26 162.84a7.22 7.22 0 0 1 3.74-9.57 38 38 0 0 1 5.37-1.76c10.94-2.8 29.94-10.41 41.1-25.07 0 0 3.22-5.61 7.75-4.12s1.38 6.76-3.18 5.44c0 0-13.63 34.74-44.79 40.46a9.19 9.19 0 0 1 -10-5.38z" fill="#f4a28c"/><path d="m195.21 34.26 12.44 4.98-.15 9.18-10.84-8.82z" fill="#f4a28c"/><path d="m198.3 41.05a4.84 4.84 0 0 0 0-2.78 7.65 7.65 0 0 1 2.75 4.9z" fill="#ce8172" opacity=".31"/><path d="m191.22 38.82a25.25 25.25 0 0 0 5.5 4 2 2 0 0 0 2.72-1 4.52 4.52 0 0 0 -.44-4.9l-2-3.19a3.65 3.65 0 0 0 -4.07-1.19c-2.77.71-3.6 4.64-1.71 6.28z" fill="#f4a28c"/><path d="m193.17 40.5.52 1.87a.66.66 0 0 0 1.06.33l1.2-1z" fill="#f4a28c"/><path d="m200.48 36.05-3.8-4.05s1.2-2.91-1-3.2-1.73 1.48-3.72.29-3.4.15-3 2-.82.33-1.91 1.61-.71 2.06.35 2.77-1.37 2-.34 3.4 2.3 2.29 4.73-1.1 3.72.93 8.69-1.72z" fill="#ffd200"/><path d="m196.67 37.61s-1.21-1-.38-1.85 2.59.6 1.75 2z" fill="#f4a28c"/><path d="m240.17 76.31s-5.27 13.68.71 20.55 19.34 13.51 19.34 13.51 1.71 8 5.94.73l-.82-3.94-12.51-9.52-8-10.11 5.16-11z" opacity=".08"/><path d="m257.31 59.27-7.31 9.36-4.89 6.37a45.5 45.5 0 0 1 -8.59.47c-8.48-.3-20.94-3-26.37-15.12a33.09 33.09 0 0 1 -2.64-11.9l.14-9.17s13.7-10 26-1.66 23.66 21.65 23.66 21.65z" fill="#68e1fd"/><path d="m257.31 59.27s13.69 9.14 6.35 15.43a76.29 76.29 0 0 0 -10.14 11 5.16 5.16 0 0 0 .41 6.77l10.18 10.37-1.77 4.75-15-9.51a12.51 12.51 0 0 1 -5.14-14.56l2.91-8.52z" fill="#24285b"/><path d="m250 68.63-4.89 6.37s-3.57.24-8.59.47c-8.48-.3-20.94-3-26.37-15.12 4.4-6 10.19-11.66 12.91-12.28 0 0 5.1 14.39 12.72 16.78 7.44 2.34 13.94 3.75 14.25 3.82z" opacity=".08"/><path d="m223.5 50.61c1-8.42-9.87-12.66-15.08-6a19.75 19.75 0 0 0 -3.42 6.64c-2.66 9-19.25 45.66-19.25 45.66l5.63 2.75s21.09-26.36 29.3-40.87a22 22 0 0 0 2.82-8.18z" fill="#68e1fd"/><path d="m223.5 50.61c1-8.42-9.87-12.66-15.08-6a19.75 19.75 0 0 0 -3.42 6.64c-2.66 9-19.25 45.66-19.25 45.66l5.63 2.75s21.09-26.36 29.3-40.87a22 22 0 0 0 2.82-8.18z" fill="#fff" opacity=".36"/><path d="m186.64 97.36s-6.21 3.5-2.72 5.81 7.42-3.51 7.42-3.51z" fill="#f4a28c"/><path d="m262.76 106.41s2.89 3 1.87 4.94c0 0 2 2.13 3.56-.67s-1.16-6-1.16-6l-3.23-1.1z" fill="#68e1fd"/><path d="m288.73 206.33q-3 7.78-5.41 15.76c-.32 1.06-1.69 7.6-2.84 11.93h13.33a56.19 56.19 0 0 1 10.41-27.94c.13 9.66.49 20 5.94 27.94h6.09a9.08 9.08 0 0 0 2.12-5.25 27.57 27.57 0 0 0 -.93-7.85 122 122 0 0 1 -2.54-24.19c0-10.23 1.19-20.48.31-30.68-.53-6.05-2-12.49-6.63-16.48a4.81 4.81 0 0 0 -.62-.47c.46-3.6.69-7.24.9-10.85l.64-10.52c.22-3.57-1.79-9.38-5.91-5.37-3.36 3.26-2.19 7-3 10.89-1.28 6.08-8.81 5.29-13.56 5.08-15-.67-30.16-.29-45.22-.29h-35.39v65.47h83.47c-.4.94-.8 1.88-1.16 2.82z" opacity=".08"/><path d="m285.24 247.57s-2.21 2.18-4.6 1.15-4.13 1-2.37 2.73 8.42 1.79 8.42 1.79l1.95-4.51z" fill="#68e1fd"/><path d="m322.35 246.56s1.08 3-.72 4.92-.68 4.4 1.5 3.34 4.75-7.54 4.75-7.54l-3.23-3.6z" fill="#68e1fd"/><path d="m328.26 190.73s2.33 9.7-1.72 14.47-10.25 27.37 0 38.67l-4.05 4s-17.75-9.54-12.69-43.94l-12.68-13.21z" fill="#24285b"/><path d="m297.12 190.73-13 57.15 6.51 1s13-39.17 21.61-47.21z" fill="#24285b"/><path d="m294.1 140.48s-13.58 5.79-11.5 27l13.26-1.13z" fill="#68e1fd"/><path d="m294.1 140.48s-13.58 5.79-11.5 27l13.26-1.13z" fill="#fff" opacity=".36"/><path d="m313.17 124.6-.52 13.78-7.57-.83 3.41-9.69z" fill="#f4a28c"/><path d="m307.66 130a5 5 0 0 0 2.7-1 7.9 7.9 0 0 1 -3.8 4.36z" fill="#ce8172" opacity=".31"/><path d="m312 135.59-4.42.92s-20.24 2.18-21.06 13.6 10.61 40.62 10.61 40.62h30.67s24.55-58.16-15.8-55.14z" fill="#68e1fd"/><path d="m305.7 122.58a26 26 0 0 0 -.62 7 2.12 2.12 0 0 0 2.34 1.87 4.67 4.67 0 0 0 4.1-3l1.75-3.47a3.79 3.79 0 0 0 -1.09-4.23c-2.12-2.03-6.04-.7-6.48 1.83z" fill="#f4a28c"/><path d="m321 140.91s-10.45 6.09-8 19.88 6.48 18.53-2.17 16.61-12.21-6.27-12.21-6.27-6.23 5.08 0 8.93 14.68 3.85 16 10.67h13.16s1.06-3 2.47-6.75-9.25-43.07-9.25-43.07z" opacity=".09"/><path d="m306.71 122.9a16.81 16.81 0 0 0 3.88.24 3.51 3.51 0 0 0 -.53 3.81 2.85 2.85 0 0 0 3.26 1.6l.68-5.36a4.26 4.26 0 0 0 -1.63-4.08 16.66 16.66 0 0 0 -1.66-1.13 5.09 5.09 0 0 0 -5.27.19 2.9 2.9 0 0 0 -.35 4.06 3 3 0 0 0 1.62.67z" fill="#24285b"/><path d="m309.63 126.77s.26-1.61 1.45-1.31.83 2.6-.84 2.59z" fill="#f4a28c"/><path d="m212.3 131.68h88.95v65.14h-88.95z" fill="#ffd200"/><path d="m219.65 137.75h74.26v53h-74.26z" fill="#fff" opacity=".43"/><path d="m220.5 190.75 20.21-37.37 17.16 28.98 15.44-18.11 20.59 26.5z" fill="#fff" opacity=".49"/><circle cx="259.25" cy="154.57" fill="#fff" r="5.96"/><path d="m337.22 165.28s1.73 17.71-7 18.7c-6.56.74-17.08-3-23.51-4.79-2.78-.8-4.13-1.17-6.27-3.12-2.56-2.34-6.12-4-3.36-6.23 4.91-4 8.4 2.81 8.4 2.81a54.18 54.18 0 0 0 12.59 2.1 5.14 5.14 0 0 0 5.11-6.47l-1.62-6.1s11.53-10.8 15.66 3.1z" fill="#f4a28c"/><path d="m305.24 125.2-1.38 1.44a.68.68 0 0 0 .27 1.11l1.55.52z" fill="#f4a28c"/><path d="m328.19 139.53c4.49 3.47 11.32 11.13 11.19 25.61l-18.58 1.19s-5.37-15.9.24-25.42a4.84 4.84 0 0 1 7.15-1.38z" fill="#68e1fd"/><path d="m328.19 139.53c4.49 3.47 11.32 11.13 11.19 25.61l-18.58 1.19s-5.37-15.9.24-25.42a4.84 4.84 0 0 1 7.15-1.38z" fill="#fff" opacity=".36"/><path d="m145.42 69.58h28v4.43h-28z" fill="#c9c9c9" transform="matrix(-1 0 0 -1 318.83 143.6)"/><path d="m145.42 65.13h21.18v4.43h-21.18z" fill="#e6e6e6" transform="matrix(-1 0 0 -1 312.01 134.7)"/><path d="m147.79 64.12s7.82-2.14 9.53-9.43c0 0-12.13-2.45-12.48 10.07z" fill="#68e1fd" opacity=".58"/><path d="m146.83 63.34s5.46-8.65.65-16.73c0 0-9.22 5.86-5.12 16.75z" fill="#68e1fd" opacity=".73"/><path d="m145.42 63.35s-2.89-9.13-11.63-10.86c0 0-1.63 5.92 5.66 10.88z" fill="#68e1fd"/><path d="m151.09 63.14-1.58 10.86-10 .04-1.47-10.85z" fill="#24285b"/></svg>